<svg xmlns="http://www.w3.org/2000/svg" viewBox="0 0 980 850" fill="none" font-family="Inter, -apple-system, system-ui, sans-serif">
  <style>
    .box { stroke-width: 2; rx: 10; }
    .label { font-size: 13px; font-weight: 600; fill: #1e1e1e; }
    .sublabel { font-size: 11px; fill: #6b7280; }
    .arrow { stroke: #374151; stroke-width: 2; fill: none; marker-end: url(#arrowhead); }
    .arrow-dashed { stroke: #9ca3af; stroke-width: 1.5; fill: none; stroke-dasharray: 6 4; marker-end: url(#arrowhead-gray); }
    .section-label { font-size: 10px; font-weight: 700; fill: #9ca3af; letter-spacing: 1.5px; text-transform: uppercase; }
    .annotation { font-size: 10px; fill: #7c3aed; font-weight: 500; font-style: italic; }
    .fallback-tag { font-size: 9px; fill: #7c3aed; font-weight: 600; }
    .fallback-bg { fill: #f3e8ff; stroke: #c084fc; stroke-width: 1; rx: 4; }
  </style>
  <defs>
    <marker id="arrowhead" markerWidth="10" markerHeight="7" refX="9" refY="3.5" orient="auto">
      <polygon points="0 0, 10 3.5, 0 7" fill="#374151"/>
    </marker>
    <marker id="arrowhead-gray" markerWidth="10" markerHeight="7" refX="9" refY="3.5" orient="auto">
      <polygon points="0 0, 10 3.5, 0 7" fill="#9ca3af"/>
    </marker>
  </defs>

  <!-- Background -->
  <rect width="980" height="850" fill="#fafafa" rx="16"/>

  <!-- ============ INGESTION ============ -->
  <text x="50" y="30" class="section-label">INGESTION</text>

  <!-- RSS Feeds -->
  <rect x="40" y="50" width="170" height="65" class="box" fill="#dbeafe" stroke="#93c5fd"/>
  <text x="125" y="76" class="label" text-anchor="middle">RSS Feeds</text>
  <text x="125" y="96" class="sublabel" text-anchor="middle">65 sources (HN, Dev.to, AWS...)</text>

  <!-- AgentMail -->
  <rect x="40" y="150" width="170" height="65" class="box" fill="#d1fae5" stroke="#6ee7b7"/>
  <text x="125" y="176" class="label" text-anchor="middle">AgentMail</text>
  <text x="125" y="196" class="sublabel" text-anchor="middle">35 email newsletters (Svix)</text>

  <!-- Arrows to Queue -->
  <path d="M210,82 L300,115" class="arrow"/>
  <path d="M210,182 L300,145" class="arrow"/>

  <!-- Ingestion Queue -->
  <rect x="300" y="95" width="200" height="65" class="box" fill="#fef3c7" stroke="#fcd34d"/>
  <text x="400" y="121" class="label" text-anchor="middle">Ingestion Queue</text>
  <text x="400" y="141" class="sublabel" text-anchor="middle">Async + exponential retry</text>

  <!-- Arrow to Categorizer -->
  <path d="M500,127 L580,127" class="arrow"/>

  <!-- Article Categorizer -->
  <rect x="580" y="90" width="200" height="75" class="box" fill="#e9d5ff" stroke="#c084fc"/>
  <text x="680" y="116" class="label" text-anchor="middle">Article Categorizer</text>
  <text x="680" y="136" class="sublabel" text-anchor="middle">title, summary, level, roles</text>
  <rect x="615" y="144" width="130" height="16" class="fallback-bg"/>
  <text x="680" y="155" class="fallback-tag" text-anchor="middle">Claude · Gemini fallback</text>

  <!-- Arrow down to DB -->
  <path d="M680,165 L680,250" class="arrow"/>

  <!-- ============ DATABASE ============ -->
  <text x="50" y="265" class="section-label">DATABASE</text>

  <!-- Supabase DB -->
  <rect x="140" y="275" width="700" height="80" class="box" fill="#fed7aa" stroke="#fdba74"/>
  <text x="490" y="301" class="label" text-anchor="middle">Supabase (PostgreSQL + Auth + RLS)</text>
  <text x="490" y="323" class="sublabel" text-anchor="middle">articles | users | newsletters_sent | newsletter_events | feedback | waitlist</text>

  <!-- ============ ONBOARDING ============ -->
  <text x="50" y="405" class="section-label">ONBOARDING</text>

  <!-- User Sign-up -->
  <rect x="40" y="420" width="170" height="65" class="box" fill="#cffafe" stroke="#67e8f9"/>
  <text x="125" y="446" class="label" text-anchor="middle">User Sign-up</text>
  <text x="125" y="466" class="sublabel" text-anchor="middle">Magic link auth</text>

  <!-- Arrow to Profile Parser -->
  <path d="M210,452 L290,452" class="arrow"/>

  <!-- Profile Parser -->
  <rect x="290" y="415" width="200" height="75" class="box" fill="#e9d5ff" stroke="#c084fc"/>
  <text x="390" y="441" class="label" text-anchor="middle">Profile Parser</text>
  <text x="390" y="461" class="sublabel" text-anchor="middle">resume → roles, skills, goals</text>
  <rect x="325" y="469" width="130" height="16" class="fallback-bg"/>
  <text x="390" y="480" class="fallback-tag" text-anchor="middle">Claude · Gemini fallback</text>

  <!-- Arrow up to DB -->
  <path d="M390,415 L390,355" class="arrow"/>

  <!-- ============ NEWSLETTER PIPELINE ============ -->
  <text x="600" y="405" class="section-label">NEWSLETTER PIPELINE (8 AM LOCAL TIME)</text>

  <!-- cron-job.org -->
  <rect x="620" y="420" width="180" height="55" class="box" fill="#fecaca" stroke="#fca5a5"/>
  <text x="710" y="443" class="label" text-anchor="middle">cron-job.org</text>
  <text x="710" y="461" class="sublabel" text-anchor="middle">free, hourly HTTP GET</text>

  <!-- Arrow from DB to cron -->
  <path d="M710,355 L710,420" class="arrow"/>

  <!-- after() annotation -->
  <text x="825" y="442" class="annotation">after() returns</text>
  <text x="825" y="455" class="annotation">200 immediately</text>

  <!-- Arrow from Cron down to Match -->
  <path d="M710,475 L710,530" class="arrow"/>

  <!-- ============ PIPELINE STEPS (sequential row) ============ -->

  <!-- Match -->
  <rect x="120" y="530" width="195" height="60" class="box" fill="#dbeafe" stroke="#93c5fd"/>
  <text x="217" y="555" class="label" text-anchor="middle">Match Articles</text>
  <text x="217" y="573" class="sublabel" text-anchor="middle">DB Function (top 15)</text>

  <!-- Arrow from DB down to Match -->
  <path d="M300,355 L217,530" class="arrow-dashed"/>

  <!-- Arrow Match → Compose -->
  <path d="M315,560 L540,560" class="arrow"/>

  <!-- Compose -->
  <rect x="540" y="525" width="200" height="75" class="box" fill="#e9d5ff" stroke="#c084fc"/>
  <text x="640" y="551" class="label" text-anchor="middle">Newsletter Composer</text>
  <text x="640" y="571" class="sublabel" text-anchor="middle">personalized brief + roadmap</text>
  <rect x="575" y="579" width="130" height="16" class="fallback-bg"/>
  <text x="640" y="590" class="fallback-tag" text-anchor="middle">Claude · Gemini fallback</text>

  <!-- Arrow Compose → Send -->
  <path d="M740,560 L800,560" class="arrow"/>

  <!-- Resend -->
  <rect x="800" y="530" width="140" height="60" class="box" fill="#d1fae5" stroke="#6ee7b7"/>
  <text x="870" y="555" class="label" text-anchor="middle">Resend</text>
  <text x="870" y="573" class="sublabel" text-anchor="middle">MJML email delivery</text>

  <!-- Arrow Send → Inbox -->
  <path d="M870,590 L870,660" class="arrow"/>

  <!-- ============ DELIVERY & FEEDBACK ============ -->

  <!-- Developer Inbox -->
  <rect x="770" y="660" width="190" height="60" class="box" fill="#cffafe" stroke="#67e8f9"/>
  <text x="865" y="686" class="label" text-anchor="middle">Developer Inbox</text>
  <text x="865" y="704" class="sublabel" text-anchor="middle">Personalized daily brief</text>

  <!-- Unsubscribe annotation -->
  <text x="865" y="738" class="annotation" text-anchor="middle">JWT one-click unsubscribe</text>

  <!-- Dashed arrow from Inbox to Tracking -->
  <path d="M770,690 L530,690" class="arrow-dashed"/>

  <!-- Engagement Tracking -->
  <rect x="290" y="665" width="240" height="55" class="box" fill="#f3f4f6" stroke="#d1d5db"/>
  <text x="410" y="686" class="label" text-anchor="middle" fill="#6b7280">Engagement Tracking</text>
  <text x="410" y="702" class="sublabel" text-anchor="middle">Opens, clicks, emoji feedback</text>

  <!-- Dashed arrow back to DB -->
  <path d="M200,690 L200,355" class="arrow-dashed"/>
  <path d="M290,690 L200,690" class="arrow-dashed"/>
  <text x="185" y="530" class="annotation" text-anchor="end">events +</text>
  <text x="185" y="542" class="annotation" text-anchor="end">feedback → DB</text>
</svg>
