<svg xmlns="http://www.w3.org/2000/svg" viewBox="0 0 960 740" fill="none" font-family="Inter, -apple-system, system-ui, sans-serif">
  <style>
    .box { stroke-width: 2; rx: 10; }
    .label { font-size: 13px; font-weight: 600; fill: #1e1e1e; }
    .sublabel { font-size: 11px; fill: #6b7280; }
    .arrow { stroke: #374151; stroke-width: 2; fill: none; marker-end: url(#arrowhead); }
    .arrow-dashed { stroke: #9ca3af; stroke-width: 1.5; fill: none; stroke-dasharray: 6 4; marker-end: url(#arrowhead-gray); }
    .section-label { font-size: 10px; font-weight: 700; fill: #9ca3af; letter-spacing: 1.5px; text-transform: uppercase; }
    .annotation { font-size: 10px; fill: #7c3aed; font-weight: 500; font-style: italic; }
  </style>
  <defs>
    <marker id="arrowhead" markerWidth="10" markerHeight="7" refX="9" refY="3.5" orient="auto">
      <polygon points="0 0, 10 3.5, 0 7" fill="#374151"/>
    </marker>
    <marker id="arrowhead-gray" markerWidth="10" markerHeight="7" refX="9" refY="3.5" orient="auto">
      <polygon points="0 0, 10 3.5, 0 7" fill="#9ca3af"/>
    </marker>
  </defs>

  <!-- Background -->
  <rect width="960" height="740" fill="#fafafa" rx="16"/>

  <!-- ============ INGESTION ============ -->
  <text x="50" y="30" class="section-label">INGESTION</text>

  <!-- RSS Feeds -->
  <rect x="40" y="50" width="170" height="65" class="box" fill="#dbeafe" stroke="#93c5fd"/>
  <text x="125" y="76" class="label" text-anchor="middle">RSS Feeds</text>
  <text x="125" y="96" class="sublabel" text-anchor="middle">65 sources (HN, Dev.to, AWS...)</text>

  <!-- AgentMail -->
  <rect x="40" y="150" width="170" height="65" class="box" fill="#d1fae5" stroke="#6ee7b7"/>
  <text x="125" y="176" class="label" text-anchor="middle">AgentMail</text>
  <text x="125" y="196" class="sublabel" text-anchor="middle">35 email newsletters (Svix)</text>

  <!-- Arrows to Queue -->
  <path d="M210,82 L300,115" class="arrow"/>
  <path d="M210,182 L300,145" class="arrow"/>

  <!-- Ingestion Queue -->
  <rect x="300" y="95" width="200" height="65" class="box" fill="#fef3c7" stroke="#fcd34d"/>
  <text x="400" y="121" class="label" text-anchor="middle">Ingestion Queue</text>
  <text x="400" y="141" class="sublabel" text-anchor="middle">Async + exponential retry</text>

  <!-- Arrow to Categorizer -->
  <path d="M500,127 L580,127" class="arrow"/>

  <!-- Claude Categorizer -->
  <rect x="580" y="95" width="200" height="65" class="box" fill="#e9d5ff" stroke="#c084fc"/>
  <text x="680" y="121" class="label" text-anchor="middle">Claude AI</text>
  <text x="680" y="141" class="sublabel" text-anchor="middle">Article Categorizer</text>

  <!-- Arrow down to DB -->
  <path d="M680,160 L680,240" class="arrow"/>

  <!-- ============ DATABASE ============ -->
  <text x="50" y="255" class="section-label">DATABASE</text>

  <!-- Supabase DB -->
  <rect x="200" y="260" width="600" height="80" class="box" fill="#fed7aa" stroke="#fdba74"/>
  <text x="500" y="286" class="label" text-anchor="middle">Supabase (PostgreSQL + Auth + RLS)</text>
  <text x="500" y="308" class="sublabel" text-anchor="middle">articles | users | newsletters_sent | newsletter_events | ingestion_jobs | waitlist</text>

  <!-- ============ ONBOARDING ============ -->
  <text x="50" y="385" class="section-label">ONBOARDING</text>

  <!-- User Sign-up -->
  <rect x="40" y="400" width="170" height="65" class="box" fill="#cffafe" stroke="#67e8f9"/>
  <text x="125" y="426" class="label" text-anchor="middle">User Sign-up</text>
  <text x="125" y="446" class="sublabel" text-anchor="middle">Magic link auth</text>

  <!-- Arrow to Profile Parser -->
  <path d="M210,432 L290,432" class="arrow"/>

  <!-- Claude Profile Parser -->
  <rect x="290" y="400" width="200" height="65" class="box" fill="#e9d5ff" stroke="#c084fc"/>
  <text x="390" y="426" class="label" text-anchor="middle">Claude AI</text>
  <text x="390" y="446" class="sublabel" text-anchor="middle">Profile Parser</text>

  <!-- Arrow up to DB -->
  <path d="M390,400 L390,340" class="arrow"/>

  <!-- ============ NEWSLETTER PIPELINE ============ -->
  <text x="560" y="385" class="section-label">NEWSLETTER (8 AM LOCAL TIME)</text>

  <!-- cron-job.org -->
  <rect x="560" y="400" width="180" height="55" class="box" fill="#fecaca" stroke="#fca5a5"/>
  <text x="650" y="423" class="label" text-anchor="middle">cron-job.org</text>
  <text x="650" y="441" class="sublabel" text-anchor="middle">free, hourly HTTP GET</text>

  <!-- Arrow from DB to cron area -->
  <path d="M650,340 L650,400" class="arrow"/>

  <!-- after() annotation -->
  <text x="765" y="422" class="annotation">after() returns</text>
  <text x="765" y="435" class="annotation">200 immediately</text>

  <!-- Arrows from Cron to 3 pipeline steps -->
  <path d="M580,455 L420,505" class="arrow"/>
  <path d="M650,455 L650,505" class="arrow"/>
  <path d="M720,455 L830,505" class="arrow"/>

  <!-- Match -->
  <rect x="320" y="505" width="195" height="60" class="box" fill="#dbeafe" stroke="#93c5fd"/>
  <text x="417" y="530" class="label" text-anchor="middle">Match Articles</text>
  <text x="417" y="548" class="sublabel" text-anchor="middle">Supabase DB Function (top 15)</text>

  <!-- Compose -->
  <rect x="560" y="505" width="180" height="60" class="box" fill="#e9d5ff" stroke="#c084fc"/>
  <text x="650" y="530" class="label" text-anchor="middle">Claude AI</text>
  <text x="650" y="548" class="sublabel" text-anchor="middle">Newsletter Composer</text>

  <!-- Send -->
  <rect x="780" y="505" width="130" height="60" class="box" fill="#d1fae5" stroke="#6ee7b7"/>
  <text x="845" y="530" class="label" text-anchor="middle">Resend</text>
  <text x="845" y="548" class="sublabel" text-anchor="middle">Email delivery</text>

  <!-- Arrow to Inbox -->
  <path d="M845,565 L845,620" class="arrow"/>

  <!-- Developer Inbox -->
  <rect x="740" y="620" width="180" height="60" class="box" fill="#cffafe" stroke="#67e8f9"/>
  <text x="830" y="646" class="label" text-anchor="middle">Developer Inbox</text>
  <text x="830" y="664" class="sublabel" text-anchor="middle">Personalized daily brief</text>

  <!-- Dashed arrow to Tracking -->
  <path d="M740,650 L590,650" class="arrow-dashed"/>

  <!-- Tracking -->
  <rect x="380" y="628" width="210" height="50" class="box" fill="#f3f4f6" stroke="#d1d5db"/>
  <text x="485" y="649" class="label" text-anchor="middle" fill="#6b7280">Engagement Tracking</text>
  <text x="485" y="664" class="sublabel" text-anchor="middle">Opens, clicks, feedback</text>

  <!-- Dashed arrow back to DB -->
  <path d="M485,628 L485,340" class="arrow-dashed"/>
</svg>
